<svg width="74" height="12" viewBox="0 0 74 12" fill="none" xmlns="http://www.w3.org/2000/svg">
<path opacity="0.4" d="M1.48739 8.59031C0.708835 8.87342 0.307201 9.73406 0.59031 10.5126C0.873419 11.2912 1.73406 11.6928 2.51261 11.4097L1.48739 8.59031ZM72 3.5L73.5 3.5V0.5L72 0.5V3.5ZM2 10C2.51261 11.4097 2.51222 11.4098 2.5119 11.4099C2.51191 11.4099 2.51168 11.41 2.51169 11.41C2.51172 11.41 2.51208 11.4099 2.51278 11.4096C2.51418 11.4091 2.51693 11.4081 2.52101 11.4067C2.52919 11.4038 2.54275 11.3989 2.56171 11.3923C2.59962 11.379 2.65913 11.3583 2.74035 11.3308C2.90279 11.2757 3.15208 11.1932 3.48922 11.0871C4.16349 10.875 5.18913 10.5686 6.57399 10.1994C9.34367 9.46077 13.5505 8.47026 19.257 7.47782C30.6698 5.49299 48.0837 3.5 72 3.5V0.5C47.9163 0.5 30.3302 2.50701 18.743 4.52218C12.9495 5.52974 8.65633 6.53923 5.80101 7.30065C4.37337 7.68135 3.30526 8.00002 2.5889 8.22539C2.23073 8.33808 1.96049 8.42743 1.77723 8.48956C1.6856 8.52062 1.61571 8.54487 1.56744 8.56183C1.54331 8.5703 1.52458 8.57696 1.51124 8.58172C1.50457 8.58411 1.49925 8.58602 1.49528 8.58745C1.49329 8.58817 1.49164 8.58877 1.49032 8.58924C1.48967 8.58948 1.48893 8.58975 1.4886 8.58987C1.48795 8.5901 1.48739 8.59031 2 10Z" fill="#FF6357"/>
</svg>
