<svg width="56" height="56" viewBox="0 0 56 56" fill="none" xmlns="http://www.w3.org/2000/svg">
<path fill-rule="evenodd" clip-rule="evenodd" d="M8 29C8 17.402 17.402 8 29 8C32.9128 8 36.5732 9.06919 39.7079 10.9311L36.3586 14.2805C35.8229 14.8162 35.6359 15.6085 35.8754 16.3272L36.9013 19.4047L36.6 19.713C34.5306 18.0175 31.8841 17 29 17C22.3726 17 17 22.3726 17 29C17 35.6274 22.3726 41 29 41C35.6274 41 41 35.6274 41 29C41 25.9767 39.882 23.2145 38.0368 21.1044L38.3206 20.8139L41.383 21.8347C42.1016 22.0743 42.894 21.8872 43.4296 21.3516L46.8498 17.9315C48.8468 21.1448 50 24.9364 50 29C50 40.598 40.598 50 29 50C17.402 50 8 40.598 8 29ZM29 6C33.4644 6 37.6342 7.27291 41.1632 9.47585L43.7741 6.86495C44.5626 6.07648 45.9052 6.39342 46.2578 7.45127L47.2581 10.4521L50.2589 11.4523C51.3167 11.805 51.6337 13.1475 50.8452 13.936L48.2986 16.4826C50.6399 20.0853 52 24.3852 52 29C52 41.7025 41.7025 52 29 52C16.2975 52 6 41.7025 6 29C6 16.2975 16.2975 6 29 6ZM29 19C31.34 19 33.4923 19.8037 35.1958 21.1502L29.4338 27.0472C29.2942 27.0163 29.149 27 29 27C27.8954 27 27 27.8954 27 29C27 30.1046 27.8954 31 29 31C30.1046 31 31 30.1046 31 29C31 28.7909 30.9679 28.5893 30.9084 28.3999L36.6338 22.5402C38.1099 24.2828 39 26.5375 39 29C39 34.5229 34.5228 39 29 39C23.4772 39 19 34.5229 19 29C19 23.4772 23.4772 19 29 19ZM48.8589 13.0939L46.6256 12.3494C46.0284 12.1504 45.5598 11.6817 45.3607 11.0845L44.6163 8.85123L37.7728 15.6947L38.8334 18.8767L42.0154 19.9374L48.8589 13.0939Z" fill="#2FC9B9"/>
</svg>
