<svg width="56" height="56" viewBox="0 0 56 56" fill="none" xmlns="http://www.w3.org/2000/svg">
<path fill-rule="evenodd" clip-rule="evenodd" d="M16 11C16 7.68629 18.6863 5 22 5H22.5C24.8158 5 26.8487 6.21102 28 8.03432C29.1513 6.21102 31.1842 5 33.5 5H34C37.3137 5 40 7.68629 40 11C40 12.5367 39.4223 13.9385 38.4722 15H45C47.7614 15 50 17.2386 50 20V23C50 25.0503 48.7659 26.8124 47 27.584V46C47 48.7614 44.7614 51 42 51H14C11.2386 51 9 48.7614 9 46V27.584C7.2341 26.8124 6 25.0503 6 23V20C6 17.2386 8.23858 15 11 15H17.5278C16.5777 13.9385 16 12.5367 16 11ZM31 17H29H28H27H25V26H31V17ZM33 17V26H45C46.6569 26 48 24.6569 48 23V20C48 18.3431 46.6569 17 45 17H34H33ZM31 28H25L25 49H31L31 28ZM33 49L33 28H45V46C45 47.6569 43.6569 49 42 49H33ZM11 17H22H23V26H11C9.34315 26 8 24.6569 8 23V20C8 18.3431 9.34315 17 11 17ZM11 28H23L23 49H14C12.3431 49 11 47.6569 11 46V28ZM27 15V11.5C27 9.01472 24.9853 7 22.5 7H22C19.7909 7 18 8.79086 18 11C18 13.2091 19.7909 15 22 15H27ZM34 15C36.2091 15 38 13.2091 38 11C38 8.79086 36.2091 7 34 7H33.5C31.0147 7 29 9.01472 29 11.5V15H34Z" fill="#2FC9B9"/>
</svg>
