<svg width="56" height="56" viewBox="0 0 56 56" fill="none" xmlns="http://www.w3.org/2000/svg">
<path fill-rule="evenodd" clip-rule="evenodd" d="M24 7C19.117 7 15 11.3853 15 17C15 22.6147 19.117 27 24 27C28.883 27 33 22.6147 33 17C33 11.3853 28.883 7 24 7ZM13 17C13 10.4644 17.8373 5 24 5C30.1627 5 35 10.4644 35 17C35 23.5356 30.1627 29 24 29C17.8373 29 13 23.5356 13 17ZM27.0012 32.0106C28.8082 31.619 30.5917 31.6417 32.2637 32.0075L31.4644 33.8883C30.1716 33.6553 28.8063 33.6658 27.4248 33.9652C25.1678 34.4543 22.8322 34.4543 20.5752 33.9652C14.1088 32.5638 8 37.4906 8 44.1071V48C8 48.5523 8.44772 49 9 49H26.9576L26.47 51H9C7.34315 51 6 49.6569 6 48V44.1071C6 36.2154 13.2862 30.3391 20.9988 32.0106C22.9767 32.4392 25.0233 32.4392 27.0012 32.0106ZM35.2868 35.8764L37.5 30.7102L39.7132 35.8764C40.0741 36.7187 40.8668 37.2961 41.7792 37.3811L47.373 37.9027L43.1481 41.6336C42.451 42.2492 42.1532 43.2009 42.3752 44.1041L43.7112 49.5405L38.719 46.7525C37.9614 46.3295 37.0386 46.3295 36.2811 46.7525L31.2888 49.5405L32.6248 44.1041C32.8468 43.2009 32.549 42.2492 31.8519 41.6336L27.627 37.9027L33.2208 37.3811C34.1332 37.2961 34.9259 36.7187 35.2868 35.8764ZM36.0839 28.9368C36.6191 27.6877 38.381 27.6877 38.9161 28.9368L41.5516 35.0888C41.6238 35.2573 41.7824 35.3728 41.9648 35.3898L48.5985 36.0082C49.9457 36.1338 50.4901 37.8182 49.4737 38.7158L44.472 43.1327C44.3326 43.2558 44.273 43.4462 44.3174 43.6268L45.9018 50.074C46.2249 51.3884 44.8337 52.4581 43.6563 51.8005L37.7438 48.4987C37.5923 48.4141 37.4077 48.4141 37.2562 48.4987L31.3438 51.8005C30.1664 52.4581 28.7752 51.3885 29.0982 50.074L30.6826 43.6268C30.727 43.4462 30.6674 43.2558 30.528 43.1327L25.5263 38.7158C24.5099 37.8182 25.0543 36.1338 26.4015 36.0082L33.0352 35.3898C33.2176 35.3728 33.3762 35.2573 33.4484 35.0888L36.0839 28.9368Z" fill="#2FC9B9"/>
</svg>
