<svg width="56" height="56" viewBox="0 0 56 56" fill="none" xmlns="http://www.w3.org/2000/svg">
<path fill-rule="evenodd" clip-rule="evenodd" d="M27.9999 8C27.9999 7 27.9998 7 27.9997 7H27.9991H27.9971L27.9893 7L27.9591 7.00003L27.842 7.00025C27.7394 7.0005 27.5888 7.001 27.3962 7.002C27.011 7.004 26.4573 7.00799 25.7823 7.01597C24.4328 7.03191 22.5963 7.06382 20.6504 7.1277C18.7063 7.19152 16.6443 7.28753 14.8464 7.4324C13.0789 7.57483 11.4744 7.77063 10.5008 8.05828L10.5008 8.05822L10.4896 8.06166C8.26162 8.74834 6.51275 10.764 5.93366 13.1789L5.93365 13.1789L5.93248 13.1838C5.45582 15.2174 5.22742 18.2731 5.1143 20.7572C5.05714 22.0125 5.02858 23.1451 5.01431 23.9637C5.00717 24.3732 5.00359 24.7047 5.0018 24.9343C5.0009 25.0491 5.00045 25.1385 5.00023 25.1994L5.00003 25.2692L5 25.2874L5 25.2922V25.2935V25.2939C5 25.294 5 25.2941 6 25.2941C5 25.2941 5 25.2942 5 25.2943V25.2947V25.296L5 25.3009L5.00003 25.3191L5.00023 25.3892C5.00045 25.4505 5.0009 25.5402 5.0018 25.6556C5.00359 25.8862 5.00717 26.2191 5.01431 26.6302C5.02858 27.452 5.05713 28.5883 5.11429 29.8462C5.22737 32.3345 5.45573 35.3918 5.93302 37.4067L5.93366 37.4094C6.51341 39.827 8.22886 41.8025 10.4948 42.4875C12.9933 43.2469 16.3219 43.5627 20.6494 43.6374L20.6475 43.6374C20.6475 43.6379 20.7192 43.6455 20.8809 43.7256C21.0477 43.8083 21.2569 43.9414 21.5058 44.1315C22.0039 44.5118 22.579 45.0565 23.1806 45.6908C24.3799 46.9551 25.5937 48.478 26.3727 49.4945C27.1903 50.5615 28.8119 50.5572 29.6251 49.4887C30.3989 48.4719 31.6045 46.9508 32.8008 45.6884C33.4009 45.0552 33.9755 44.5118 34.4752 44.1325C34.7247 43.9431 34.9353 43.8102 35.1042 43.7276C35.2643 43.6492 35.3408 43.6388 35.3497 43.6376C35.3507 43.6374 35.3508 43.6374 35.3502 43.6374C39.6916 43.5642 43.0422 43.2558 45.499 42.53L45.505 42.5282C47.771 41.8432 49.4864 39.8677 50.0662 37.4501L50.0673 37.4451C50.544 35.4115 50.7724 32.3559 50.8855 29.8717C50.9427 28.6164 50.9712 27.4839 50.9855 26.6652C50.9926 26.2557 50.9962 25.9242 50.998 25.6946C50.9989 25.5798 50.9994 25.4904 50.9996 25.4295L50.9998 25.3597L50.9998 25.3415L50.9998 25.3391L50.9998 25.3387L50.9998 25.3374L50.9998 25.3367V25.3354V25.335L50.9998 25.3325L50.9999 25.3142L51 25.244C51 25.1827 51 25.0928 50.9995 24.9773C50.9987 24.7465 50.9964 24.4132 50.9907 24.0016C50.9792 23.1788 50.9541 22.0406 50.8992 20.7796C50.7907 18.2864 50.5625 15.2165 50.0657 13.1771C49.4858 10.761 47.7715 8.78682 45.5072 8.10143C44.5297 7.8015 42.9227 7.59784 41.1566 7.44983C39.3579 7.29909 37.2951 7.19922 35.3507 7.13283C33.4045 7.06638 31.5677 7.0332 30.218 7.01661C29.5429 7.00831 28.9891 7.00416 28.6038 7.00208C28.4111 7.00104 28.2606 7.00052 28.158 7.00026L28.0408 7.00003L28.0105 7L28.0027 7H28.0007H28.0001C28 7 27.9999 7 27.9999 8ZM27.9999 8L28 9H28.0004L28.0021 9L28.0093 9L28.0383 9.00003L28.1529 9.00026C28.2537 9.00051 28.4024 9.00102 28.593 9.00205C28.9744 9.00411 29.5235 9.00822 30.1934 9.01646C31.5336 9.03293 33.3552 9.06586 35.2825 9.13167C37.2116 9.19753 39.2376 9.29603 40.9896 9.44285C42.7729 9.59229 44.1777 9.78519 44.9219 10.0139L44.9263 10.0152C46.4297 10.4697 47.6862 11.8309 48.1213 13.6452L48.1222 13.6489C48.5674 15.4752 48.7922 18.3656 48.9011 20.8666C48.9549 22.103 48.9796 23.2207 48.9909 24.0294C48.9965 24.4335 48.9987 24.7599 48.9995 24.9848C48.9998 25.0427 48.9999 25.0938 48.9999 25.1378C49 25.1793 49 25.2144 49 25.2428L48.9999 25.309L48.9998 25.3254L48.9998 25.3293L48.9998 25.3302L48.9998 25.3303L48.9998 25.3348V25.335V25.3358L48.9998 25.3397L48.9998 25.3561L48.9996 25.4221C48.9994 25.4804 48.999 25.5671 48.9981 25.679C48.9963 25.9029 48.9928 26.2279 48.9858 26.6303C48.9718 27.4355 48.9437 28.5487 48.8876 29.7807C48.7742 32.2701 48.5497 35.1541 48.1207 36.9864C47.6853 38.7982 46.4306 40.1577 44.9293 40.6128C42.7472 41.257 39.626 41.565 35.3165 41.6377C34.9152 41.6445 34.5394 41.7773 34.2249 41.9312C33.9015 42.0895 33.5781 42.3025 33.2659 42.5395C32.6421 43.0131 31.9823 43.6445 31.3491 44.3127C30.0786 45.6534 28.8219 47.2416 28.0336 48.2775C28.029 48.2834 28.0258 48.2856 28.0221 48.2873C28.0169 48.2898 28.0081 48.2924 27.9966 48.2924C27.9851 48.2925 27.9763 48.2899 27.9713 48.2875C27.9678 48.2858 27.9646 48.2838 27.9602 48.278C27.1671 47.2431 25.9032 45.6549 24.6317 44.3144C23.9979 43.6463 23.3393 43.0151 22.7196 42.5419C22.4095 42.3052 22.0888 42.0921 21.7688 41.9335C21.4588 41.7799 21.0845 41.6446 20.6839 41.6377C16.3898 41.5636 13.2938 41.2481 11.0751 40.5735L11.0735 40.573C9.57049 40.1187 8.31419 38.758 7.87883 36.9443C7.45025 35.134 7.22565 32.2512 7.11223 29.7554C7.05613 28.5208 7.02805 27.4038 7.01401 26.5954C7.00699 26.1914 7.00349 25.865 7.00174 25.64C7.00087 25.5276 7.00043 25.4405 7.00021 25.3818L7.00003 25.3155L7 25.2991L7 25.2951L7 25.2943V25.2941V25.2941V25.294L7 25.2931L7 25.2892L7.00003 25.2728L7.00021 25.2069C7.00043 25.1485 7.00087 25.0619 7.00174 24.9499C7.00349 24.726 7.00699 24.401 7.01401 23.9986C7.02805 23.1934 7.05613 22.0802 7.11223 20.8482C7.22558 18.359 7.45006 15.4751 7.87911 13.6428C8.31487 11.8292 9.60725 10.429 11.0731 9.97466C11.8226 9.75439 13.2283 9.56927 15.007 9.42594C16.7599 9.2847 18.7866 9.18997 20.716 9.12662C22.6437 9.06334 24.4655 9.03167 25.806 9.01583C26.476 9.00791 27.0252 9.00395 27.4066 9.00197C27.5973 9.00099 27.746 9.00049 27.8468 9.00025L27.9615 9.00003L27.9905 9L27.9977 9L27.9994 9H27.9998L27.9999 8ZM30.1068 19.8138L30.036 19.7666L30.0359 19.7666C28.7275 18.8942 27.6509 18.1764 26.7675 17.7592C25.8671 17.3339 24.8763 17.079 23.9178 17.592C22.9592 18.105 22.6217 19.0708 22.4761 20.0559C22.3333 21.0223 22.3333 22.3163 22.3333 23.8889V23.8889L22.3333 23.9741V27.6926L22.3333 27.7778V27.7778C22.3333 29.3503 22.3333 30.6443 22.4761 31.6108C22.6217 32.5959 22.9592 33.5617 23.9178 34.0747C24.8763 34.5877 25.8671 34.3327 26.7675 33.9075C27.6509 33.4902 28.7276 32.7724 30.036 31.9001L30.1068 31.8529L32.8957 29.9936L32.9625 29.9491L32.9626 29.949C34.0345 29.2345 34.9321 28.6362 35.5516 28.0763C36.1986 27.4916 36.7278 26.7865 36.7278 25.8333C36.7278 24.8802 36.1986 24.175 35.5516 23.5904C34.9321 23.0305 34.0345 22.4322 32.9625 21.7176L32.8957 21.6731L30.1068 19.8138ZM24.8615 19.3554C24.9592 19.3031 25.1809 19.2217 25.9134 19.5676C26.6469 19.9141 27.6004 20.5466 28.9974 21.4779L31.7863 23.3372C32.9427 24.1081 33.7141 24.6255 34.2106 25.0742C34.6926 25.5098 34.7278 25.7161 34.7278 25.8333C34.7278 25.9506 34.6926 26.1569 34.2106 26.5924C33.7141 27.0412 32.9427 27.5586 31.7863 28.3295L28.9974 30.1888C27.6004 31.1201 26.6469 31.7526 25.9134 32.099C25.1809 32.445 24.9592 32.3636 24.8615 32.3113C24.7638 32.259 24.5731 32.1196 24.4546 31.3183C24.336 30.5159 24.3333 29.3716 24.3333 27.6926V23.9741C24.3333 22.2951 24.336 21.1508 24.4546 20.3483C24.5731 19.547 24.7638 19.4077 24.8615 19.3554Z" fill="#2FC9B9"/>
</svg>
