<svg width="31" height="34" viewBox="0 0 31 34" fill="none" xmlns="http://www.w3.org/2000/svg">
<path d="M22.2063 5.65148C22.1262 6.53186 21.4981 6.82504 21.1504 7.32009C20.9095 7.65678 20.6698 8.03273 20.5862 8.42432C20.4085 9.26438 21.3679 10.065 22.164 9.7699C22.5602 9.61472 22.9479 9.38981 23.2592 9.11341C25.2117 7.3711 27.1605 5.61355 29.0867 3.8279C29.4432 3.50515 29.7148 3.06119 29.921 2.61143C30.2408 1.93121 29.7493 1.07492 28.9901 0.882974C28.7768 0.828714 28.5457 0.800855 28.3242 0.779425C26.1562 0.597302 23.9905 0.391148 21.8238 0.248291C21.3188 0.214879 20.7794 0.273517 20.3022 0.425273C19.3847 0.715264 19.2761 1.57634 20.0364 2.2811C20.2513 2.47719 20.5267 2.62457 20.9371 2.90131C20.5566 3.15669 20.3142 3.35155 20.0204 3.49899C18.16 4.44589 16.3056 5.38399 14.4417 6.31565C10.3011 8.39981 7.21722 11.5934 4.6025 15.2441C3.79069 16.3862 3.12693 17.6792 2.69789 19.0154C2.02299 21.1073 1.52451 23.267 1.10702 25.4301C0.642578 27.8687 1.37473 30.1799 2.83893 32.3321C3.08395 32.6893 3.43498 33.054 3.81776 33.2482C4.09916 33.3867 4.60292 33.3809 4.83714 33.2189C5.07136 33.0568 5.2179 32.5925 5.13976 32.2966C5.03378 31.8156 4.7444 31.3388 4.49912 30.879C3.51674 29.0006 3.24293 27.1009 3.72643 25.1487C4.23005 23.146 4.55132 21.0844 5.45784 19.2255C7.47003 15.1301 10.5193 11.926 14.4162 9.52386C16.5353 8.21389 18.8563 7.1809 21.0925 6.02669C21.4077 5.86809 21.76 5.79852 22.2063 5.65148Z" fill="white"/>
</svg>
