<svg width="64" height="64" viewBox="0 0 64 64" fill="none" xmlns="http://www.w3.org/2000/svg">
<path d="M38.3824 28.0677C40.2722 29.3906 41.2171 30.052 41.5501 30.876C41.8415 31.597 41.8415 32.403 41.5501 33.124C41.2171 33.948 40.2722 34.6095 38.3824 35.9323L31.5526 40.7132C29.1083 42.4242 27.8862 43.2797 26.8688 43.2352C25.983 43.1964 25.1596 42.7677 24.6199 42.0642C24 41.2563 24 39.7645 24 36.7809L24 27.2191C24 24.2355 24 22.7437 24.6199 21.9358C25.1596 21.2323 25.983 20.8036 26.8689 20.7648C27.8862 20.7203 29.1083 21.5758 31.5526 23.2868L38.3824 28.0677Z" fill="white"/>
<rect x="0.5" y="0.5" width="63" height="63" rx="31.5" stroke="white" stroke-opacity="0.4"/>
</svg>
