<svg width="14" height="8" viewBox="0 0 14 8" fill="none" xmlns="http://www.w3.org/2000/svg">
<path d="M13.7072 0.292787C13.5197 0.105316 13.2654 -3.21113e-08 13.0002 -4.3702e-08C12.735 -5.52927e-08 12.4807 0.105315 12.2932 0.292787L7.34322 5.24279L2.39322 0.292786C2.20461 0.110628 1.95201 0.00983319 1.68982 0.0121116C1.42762 0.01439 1.17681 0.119559 0.991398 0.304967C0.80599 0.490375 0.700822 0.741188 0.698544 1.00338C0.696265 1.26558 0.79706 1.51818 0.979217 1.70679L6.63622 7.36379C6.82374 7.55126 7.07805 7.65657 7.34322 7.65657C7.60838 7.65657 7.86269 7.55126 8.05021 7.36379L13.7072 1.70679C13.8947 1.51926 14 1.26495 14 0.999786C14 0.734622 13.8947 0.480314 13.7072 0.292787Z" fill="#585149"/>
</svg>
